<svg width="100" height="129" viewBox="0 0 100 129" fill="none" xmlns="http://www.w3.org/2000/svg">
<path d="M50.5 19C25.3858 19 5 39.3616 5 64.5C5 89.6384 25.3616 110 50.5 110C75.6143 110 96 89.6384 96 64.5C96 39.3616 75.6384 19 50.5 19ZM55.7593 49.277C56.4107 47.2264 57.0862 45.1758 58.0994 43.2699C59.5469 40.5437 60.7532 40.1819 63.4311 41.7017C65.0475 42.6185 66.4226 43.8248 67.3635 45.4411C67.7495 46.0684 67.4841 46.7198 66.7603 46.8887C65.7953 47.1299 65.1681 47.8054 64.6132 48.5533C63.1416 50.4833 62.2972 52.7269 61.5011 54.9706C61.2598 55.6461 60.6808 56.1286 59.9812 56.2251C57.834 56.5628 55.6869 56.8523 53.5398 57.1418C54.2153 54.5363 54.939 51.8826 55.7593 49.277ZM36.0249 43.7283C35.4942 41.8706 42.9006 42.5703 43.1177 47.9502C43.2383 50.7969 42.4905 53.7161 41.9356 56.4663C41.8873 56.7317 41.8391 56.9971 41.7667 57.2625C41.5978 58.0827 40.9223 58.71 40.0779 58.7824C37.9549 58.9995 35.8802 59.1925 33.8537 59.3855C34.6981 55.6943 35.4942 51.7861 36.1214 48.0467C36.3868 46.5992 36.4109 45.1516 36.0249 43.7283ZM68.8833 63.1249C66.7121 63.535 63.5758 63.8969 59.8123 64.1622C59.0162 69.518 58.5337 74.8979 58.7267 80.3502C58.7749 81.9425 58.9438 83.5347 59.4504 85.0546C59.7158 85.8266 60.0535 86.5021 60.8256 86.9364C61.4528 87.2741 61.2357 87.6119 60.7049 87.8773C60.1018 88.1668 59.4504 88.215 58.799 88.215C56.9173 88.2633 55.0838 87.9738 53.395 87.1053C51.658 86.1885 50.6689 84.8134 50.6206 82.811C50.5483 80.3743 50.7654 77.9618 51.0308 75.5734C51.272 73.4022 51.8751 67.9981 52.237 64.6206C47.5567 64.8136 42.3698 64.9101 37.0623 64.9343C38.2203 65.5133 39.3301 66.0682 39.6919 66.237C40.3433 66.5265 40.5604 66.9608 40.4398 67.7087C39.7884 71.2792 38.9682 76.5384 39.1853 80.2055C39.2577 81.3393 39.4024 82.4491 40.3192 83.2694C40.7052 83.6071 40.5605 83.8966 40.1503 84.0655C39.9815 84.1379 39.8126 84.162 39.6437 84.1861C36.7487 84.4756 34.0467 83.9931 31.7307 82.1113C30.6209 81.1946 30.1867 80.0125 30.4762 78.5408C31.1517 75.0668 31.8754 71.0862 32.5509 67.6121C32.5992 67.3709 32.8404 66.2611 33.1058 64.9343C27.943 64.9101 22.7561 64.7895 17.8828 64.5724L19.3062 63.7521C20.8261 62.8595 22.539 62.3529 24.3001 62.2322C40.1021 61.219 67.1705 58.6859 83.0931 52.6304C83.0931 52.5581 78.8712 61.1949 68.8833 63.1249Z" fill="#D89C30"/>
</svg>
