<svg width="118" height="135" viewBox="0 0 118 135" fill="none" xmlns="http://www.w3.org/2000/svg">
<path d="M59.5 18C32.1779 18 10 40.1516 10 67.5C10 94.8484 32.1517 117 59.5 117C86.8221 117 109 94.8484 109 67.5C109 40.1516 86.8484 18 59.5 18ZM65.2216 50.9388C65.9303 48.7079 66.6652 46.4769 67.7675 44.4035C69.3423 41.4377 70.6546 41.044 73.5679 42.6975C75.3264 43.6949 76.8224 45.0072 77.846 46.7656C78.2659 47.448 77.9772 48.1567 77.1898 48.3404C76.14 48.6029 75.4576 49.3378 74.8539 50.1514C73.2529 52.2511 72.3343 54.6919 71.4682 57.1328C71.2057 57.8677 70.5758 58.3926 69.8147 58.4976C67.4788 58.8651 65.1429 59.18 62.807 59.495C63.5419 56.6604 64.3293 53.7733 65.2216 50.9388ZM43.7524 44.9022C43.175 42.8812 51.2325 43.6424 51.4687 49.4952C51.5999 52.5923 50.7863 55.768 50.1827 58.7601C50.1302 59.0488 50.0777 59.3375 49.9989 59.6262C49.8152 60.5186 49.0803 61.201 48.1617 61.2797C45.8521 61.5159 43.5949 61.7259 41.3903 61.9359C42.3089 57.9202 43.175 53.6684 43.8574 49.6002C44.1461 48.0255 44.1723 46.4507 43.7524 44.9022ZM79.4995 66.004C77.1373 66.4502 73.7253 66.8438 69.631 67.1325C68.7649 72.9592 68.2399 78.8121 68.4499 84.7437C68.5024 86.4759 68.6861 88.2081 69.2373 89.8616C69.526 90.7015 69.8934 91.4364 70.7333 91.9088C71.4157 92.2762 71.1795 92.6437 70.6021 92.9324C69.9459 93.2474 69.2373 93.2999 68.5286 93.2999C66.4814 93.3523 64.4868 93.0374 62.6495 92.0925C60.7598 91.0952 59.6837 89.5992 59.6312 87.4207C59.5525 84.7699 59.7887 82.1453 60.0774 79.5469C60.3399 77.1848 60.996 71.3057 61.3897 67.6312C56.298 67.8412 50.6551 67.9462 44.881 67.9724C46.1408 68.6023 47.3481 69.206 47.7418 69.3897C48.4504 69.7047 48.6866 70.1771 48.5554 70.9907C47.8468 74.8751 46.9544 80.5968 47.1906 84.5862C47.2694 85.8197 47.4268 87.0271 48.4242 87.9194C48.8441 88.2869 48.6866 88.6018 48.2405 88.7855C48.0567 88.8643 47.873 88.8905 47.6893 88.9167C44.5398 89.2317 41.6002 88.7068 39.0806 86.6596C37.8733 85.6622 37.4009 84.3762 37.7158 82.7752C38.4507 78.9958 39.2381 74.6652 39.973 70.8857C40.0255 70.6233 40.2879 69.416 40.5766 67.9724C34.96 67.9462 29.3171 67.815 24.0154 67.5787L25.5639 66.6864C27.2174 65.7153 29.0809 65.1641 30.9968 65.0329C48.188 63.9305 77.636 61.1747 94.9584 54.587C94.9584 54.5082 90.3653 63.9043 79.4995 66.004Z" fill="#D89C30"/>
</svg>
