<svg width="17" height="17" viewBox="0 0 17 17" fill="none" xmlns="http://www.w3.org/2000/svg">
<path d="M8.5 2C4.91225 2 2 4.9088 2 8.5C2 12.0912 4.9088 15 8.5 15C12.0878 15 15 12.0912 15 8.5C15 4.9088 12.0912 2 8.5 2ZM9.25132 6.32529C9.34438 6.03234 9.44088 5.7394 9.58563 5.46713C9.79242 5.07768 9.96474 5.02598 10.3473 5.24311C10.5782 5.37407 10.7747 5.54639 10.9091 5.77731C10.9642 5.86691 10.9263 5.95997 10.8229 5.98409C10.685 6.01856 10.5954 6.11506 10.5162 6.2219C10.3059 6.49761 10.1853 6.81813 10.0716 7.13865C10.0371 7.23515 9.9544 7.30408 9.85445 7.31787C9.54772 7.36612 9.24099 7.40748 8.93425 7.44883C9.03075 7.07662 9.13415 6.69751 9.25132 6.32529ZM6.43213 5.53261C6.35631 5.26723 7.41437 5.36718 7.44539 6.13574C7.46262 6.54242 7.35578 6.95944 7.27651 7.35234C7.26962 7.39025 7.26273 7.42815 7.25239 7.46607C7.22826 7.58324 7.13176 7.67285 7.01113 7.68319C6.70785 7.71421 6.41146 7.74178 6.12195 7.76935C6.24258 7.24205 6.35631 6.68372 6.44592 6.14952C6.48383 5.94274 6.48728 5.73595 6.43213 5.53261ZM11.1262 8.30355C10.816 8.36214 10.368 8.41384 9.83033 8.45175C9.7166 9.21686 9.64767 9.98542 9.67524 10.7643C9.68213 10.9918 9.70626 11.2192 9.77863 11.4364C9.81654 11.5467 9.86479 11.6432 9.97508 11.7052C10.0647 11.7534 10.0337 11.8017 9.95785 11.8396C9.87169 11.881 9.77863 11.8879 9.68558 11.8879C9.41675 11.8948 9.15483 11.8534 8.91358 11.7293C8.66543 11.5984 8.52413 11.4019 8.51723 11.1159C8.50689 10.7678 8.53791 10.4231 8.57582 10.0819C8.61029 9.77174 8.69645 8.99973 8.74814 8.51723C8.07953 8.5448 7.33855 8.55859 6.58033 8.56204C6.74576 8.64475 6.9043 8.72402 6.95599 8.74815C7.04905 8.7895 7.08006 8.85154 7.06283 8.95838C6.96978 9.46845 6.8526 10.2198 6.88362 10.7436C6.89396 10.9056 6.91463 11.0642 7.0456 11.1813C7.10074 11.2296 7.08007 11.2709 7.02148 11.2951C6.99735 11.3054 6.97323 11.3089 6.9491 11.3123C6.53553 11.3537 6.14952 11.2847 5.81866 11.0159C5.66013 10.8849 5.59809 10.7161 5.63945 10.5058C5.73595 10.0095 5.83934 9.44088 5.93584 8.94459C5.94274 8.91013 5.9772 8.75159 6.01511 8.56204C5.27757 8.55859 4.53659 8.54136 3.8404 8.51034L4.04374 8.39316C4.26087 8.26564 4.50557 8.19327 4.75716 8.17603C7.01458 8.03128 10.8815 7.66941 13.1562 6.80435C13.1562 6.79401 12.553 8.02784 11.1262 8.30355Z" fill="#D89C30"/>
</svg>
